HIERARCHY
ROOT joint_Root
{
	OFFSET 0.0 0.0 0.0
	CHANNELS 6 Xposition Yposition Zposition Zrotation Xrotation Yrotation 
	JOINT Hips
	{
		OFFSET -0.726466 93.3139 -2.00062
		CHANNELS 6 Xposition Yposition Zposition Zrotation Xrotation Yrotation 
		JOINT Spine
		{
			OFFSET 15.7357 0.0 0.0
			CHANNELS 6 Xposition Yposition Zposition Zrotation Xrotation Yrotation 
			JOINT Chest
			{
				OFFSET 8.98455 -0.406207 0.0
				CHANNELS 6 Xposition Yposition Zposition Zrotation Xrotation Yrotation 
				JOINT Neck
				{
					OFFSET 16.3773 0.0 0.0
					CHANNELS 6 Xposition Yposition Zposition Zrotation Xrotation Yrotation 
					JOINT Head
					{
						OFFSET 6.45672 0.0 0.0
						CHANNELS 6 Xposition Yposition Zposition Zrotation Xrotation Yrotation 
						End Site
						{
							OFFSET 0.0 0.0 0.0
						}
					}
				}
				JOINT Shoulder_L
				{
					OFFSET 12.9942 -0.242716 4.98039
					CHANNELS 6 Xposition Yposition Zposition Zrotation Xrotation Yrotation 
					JOINT UpperArm_L
					{
						OFFSET 5.34809 0.0 0.0
						CHANNELS 6 Xposition Yposition Zposition Zrotation Xrotation Yrotation 
						JOINT LowerArm_L
						{
							OFFSET 24.3286 1.87007e-05 0.0
							CHANNELS 6 Xposition Yposition Zposition Zrotation Xrotation Yrotation 
							JOINT Hand_L
							{
								OFFSET 22.2916 0.0 0.0
								CHANNELS 6 Xposition Yposition Zposition Zrotation Xrotation Yrotation 
								End Site
								{
									OFFSET 0.0 0.0 0.0
								}
							}
						}
					}
				}
				JOINT Shoulder_R
				{
					OFFSET 12.9945 -0.242716 -4.98039
					CHANNELS 6 Xposition Yposition Zposition Zrotation Xrotation Yrotation 
					JOINT UpperArm_R
					{
						OFFSET -5.34813 0.0 0.0
						CHANNELS 6 Xposition Yposition Zposition Zrotation Xrotation Yrotation 
						JOINT LowerArm_R
						{
							OFFSET -24.3289 0.000322201 0.0
							CHANNELS 6 Xposition Yposition Zposition Zrotation Xrotation Yrotation 
							JOINT Hand_R
							{
								OFFSET -22.2915 -0.000108084 0.0
								CHANNELS 6 Xposition Yposition Zposition Zrotation Xrotation Yrotation 
								End Site
								{
									OFFSET 0.0 0.0 0.0
								}
							}
						}
					}
				}
			}
		}
		JOINT UpperLeg_L
		{
			OFFSET -2.19248 -6.46944 0.0
			CHANNELS 6 Xposition Yposition Zposition Zrotation Xrotation Yrotation 
			JOINT LowerLeg_L
			{
				OFFSET 39.0811 0.0 -1.23785e-05
				CHANNELS 6 Xposition Yposition Zposition Zrotation Xrotation Yrotation 
				JOINT Foot_L
				{
					OFFSET 40.9854 0.0 -1.26872e-05
					CHANNELS 6 Xposition Yposition Zposition Zrotation Xrotation Yrotation 
					JOINT Toes_L
					{
						OFFSET 11.7543 0.0 0.0
						CHANNELS 6 Xposition Yposition Zposition Zrotation Xrotation Yrotation 
						End Site
						{
							OFFSET 0.0 0.0 0.0
						}
					}
				}
			}
		}
		JOINT UpperLeg_R
		{
			OFFSET -2.19251 6.46944 0.0
			CHANNELS 6 Xposition Yposition Zposition Zrotation Xrotation Yrotation 
			JOINT LowerLeg_R
			{
				OFFSET -39.0811 -0.00228153 -0.0401928
				CHANNELS 6 Xposition Yposition Zposition Zrotation Xrotation Yrotation 
				JOINT Foot_R
				{
					OFFSET -40.9854 0.0 0.0
					CHANNELS 6 Xposition Yposition Zposition Zrotation Xrotation Yrotation 
					JOINT Toes_R
					{
						OFFSET -11.7543 0.0 0.0
						CHANNELS 6 Xposition Yposition Zposition Zrotation Xrotation Yrotation 
						End Site
						{
							OFFSET 0.0 0.0 0.0
						}
					}
				}
			}
		}
	}
}
MOTION
Frames:	6
Frame Time:	0.0333333
0.000000 0.000000 0.000000 0.000000 0.000000 -0.000000 -0.556741 92.320100 -0.627320 88.183200 0.924181 4.609290 15.735700 0.000005 -0.000001 83.395500 85.439200 -82.952900 8.984550 -0.406207 -0.000000 1.299530 -1.073590 0.896774 16.377300 -0.000001 -0.000001 2.790320 -3.217010 1.087200 6.456720 -0.000001 -0.000000 6.462520 -4.030710 -0.317176 12.994200 -0.242716 4.980390 -89.686400 -0.988898 -72.405000 5.348090 -0.000007 -0.000001 -70.467900 39.699000 -12.272800 24.328600 0.000019 0.000005 1.295650 3.192450 -22.102800 22.291600 -0.000001 0.000005 5.316480 5.478680 -5.697980 12.994500 -0.242716 -4.980390 88.485300 5.074960 -73.357600 -5.348130 -0.000001 -0.000004 -66.488200 37.242400 -15.930400 -24.328900 0.000322 -0.000009 2.352540 7.496280 -17.485500 -22.291500 -0.000108 -0.000004 5.521020 5.326850 -0.689488 -2.192480 -6.469440 -0.000000 -175.508000 -6.290180 -2.219090 39.081100 -0.000007 -0.000012 -0.104452 0.249250 22.737000 40.985400 -0.000006 -0.000013 0.180460 5.191420 -66.222700 11.754300 -0.000000 0.000003 -0.000044 -0.000502 -16.597100 -2.192510 6.469440 -0.000001 179.511000 15.327400 -179.267000 -39.081100 -0.002282 -0.040193 -0.038842 0.120516 19.283200 -40.985400 0.000008 0.000006 3.477540 7.280140 -65.885500 -11.754300 -0.000006 -0.000006 -0.008991 -0.095934 -20.480700
0.000000 0.000000 0.000000 0.000000 0.000000 -0.000000 -0.523050 92.335400 -0.640926 88.230900 0.953243 4.627380 15.735700 0.000005 -0.000001 83.266700 85.467400 -82.909300 8.984550 -0.406207 -0.000000 1.240450 -1.082750 0.725917 16.377300 -0.000001 -0.000001 2.891000 -3.212250 0.845434 6.456720 -0.000001 -0.000000 6.455450 -4.063000 0.007599 12.994200 -0.242716 4.980390 -89.606300 -1.238630 -72.365900 5.348090 -0.000007 -0.000001 -70.759600 39.527100 -12.153700 24.328600 0.000019 0.000005 1.313060 3.253030 -21.994600 22.291600 -0.000001 0.000005 5.377890 5.476950 -5.632150 12.994500 -0.242716 -4.980390 88.468600 5.073080 -73.178400 -5.348130 -0.000001 -0.000004 -64.987500 36.363600 -16.727600 -24.328900 0.000322 -0.000009 3.323650 8.871980 -20.637000 -22.291500 -0.000108 -0.000004 1.138460 5.302830 0.001394 -2.192480 -6.469440 -0.000000 -175.568000 -6.351130 -2.146070 39.081100 -0.000007 -0.000012 -0.103701 0.249071 22.604600 40.985400 -0.000006 -0.000013 0.216058 5.271670 -66.147500 11.754300 -0.000000 0.000003 -0.000043 -0.000493 -16.596700 -2.192510 6.469440 -0.000001 179.447000 15.318900 -179.220000 -39.081100 -0.002282 -0.040193 -0.035975 0.112672 19.227900 -40.985400 0.000008 0.000006 3.557790 7.236210 -65.869100 -11.754300 -0.000006 -0.000006 -0.009010 -0.096085 -20.486800
0.000000 0.000000 0.000000 0.000000 0.000000 -0.000000 -0.473085 92.344400 -0.665047 88.232300 0.970503 4.577970 15.735700 0.000005 -0.000001 82.300000 85.528700 -82.005200 8.984550 -0.406207 -0.000000 1.099390 -1.214820 0.600798 16.377300 -0.000001 -0.000001 3.032700 -3.136000 0.606770 6.456720 -0.000001 -0.000000 6.548000 -3.908880 -0.024772 12.994200 -0.242716 4.980390 -89.558000 -1.385720 -72.305700 5.348090 -0.000007 -0.000001 -71.087500 39.095800 -11.864700 24.328600 0.000019 0.000005 1.352850 3.365620 -21.912700 22.291600 -0.000001 0.000005 5.453250 5.477020 -5.634630 12.994500 -0.242716 -4.980390 88.467100 4.957110 -72.792600 -5.348130 -0.000001 -0.000004 -62.537300 33.926300 -18.547000 -24.328900 0.000322 -0.000009 4.009430 8.513010 -25.349200 -22.291500 -0.000108 -0.000004 -2.430550 5.282660 0.558725 -2.192480 -6.469440 -0.000000 -175.593000 -6.467800 -2.197360 39.081100 -0.000007 -0.000012 -0.103410 0.248838 22.566500 40.985400 -0.000006 -0.000013 0.279703 5.411800 -66.111900 11.754300 -0.000000 0.000003 -0.000043 -0.000494 -16.596800 -2.192510 6.469440 -0.000001 179.444000 15.283900 -179.279000 -39.081100 -0.002282 -0.040193 -0.034258 0.107985 19.188800 -40.985400 0.000008 0.000006 3.536440 7.201620 -65.817700 -11.754300 -0.000006 -0.000006 -0.008983 -0.095877 -20.478300
0.000000 0.000000 0.000000 0.000000 0.000000 -0.000000 -0.407560 92.351100 -0.711573 88.237700 0.829753 4.655770 15.735700 0.000005 -0.000001 81.418900 85.563900 -81.205800 8.984550 -0.406207 -0.000000 1.009780 -1.335850 0.437715 16.377300 -0.000001 -0.000001 3.353480 -3.031150 0.537345 6.456720 -0.000001 -0.000000 6.510880 -3.591540 -0.426303 12.994200 -0.242716 4.980390 -89.557700 -1.379730 -72.224100 5.348090 -0.000007 -0.000001 -71.102700 38.759000 -11.669200 24.328600 0.000019 0.000005 1.363760 3.403680 -21.849400 22.291600 -0.000001 0.000005 5.310620 5.473600 -5.505380 12.994500 -0.242716 -4.980390 88.481800 4.771790 -72.328200 -5.348130 -0.000001 -0.000004 -59.666500 29.769600 -21.356800 -24.328900 0.000322 -0.000009 4.315490 7.229920 -30.954000 -22.291500 -0.000108 -0.000004 -2.439900 5.275080 0.758106 -2.192480 -6.469440 -0.000000 -175.605000 -6.783830 -2.110760 39.081100 -0.000007 -0.000012 -0.101883 0.245468 22.541300 40.985400 -0.000006 -0.000013 0.351125 5.522010 -66.085600 11.754300 -0.000000 0.000003 -0.000048 -0.000543 -16.598700 -2.192510 6.469440 -0.000001 179.405000 15.081700 -179.242000 -39.081100 -0.002282 -0.040193 -0.034360 0.108333 19.179900 -40.985400 0.000008 0.000006 3.458140 7.146710 -65.752600 -11.754300 -0.000006 -0.000006 -0.008867 -0.094964 -20.441000
0.000000 0.000000 0.000000 0.000000 0.000000 -0.000000 -0.337873 92.341000 -0.737038 88.187000 0.522768 4.817840 15.735700 0.000005 -0.000001 81.129300 85.575600 -80.980600 8.984550 -0.406207 -0.000000 0.979094 -1.372780 0.308864 16.377300 -0.000001 -0.000001 3.605450 -2.845150 0.487595 6.456720 -0.000001 -0.000000 6.706580 -3.294560 -0.794383 12.994200 -0.242716 4.980390 -89.584400 -1.289600 -72.135200 5.348090 -0.000007 -0.000001 -70.947800 38.579200 -11.681900 24.328600 0.000019 0.000005 1.458510 3.687860 -21.595600 22.291600 -0.000001 0.000005 5.343070 5.473790 -5.512500 12.994500 -0.242716 -4.980390 88.543400 4.506300 -72.066600 -5.348130 -0.000001 -0.000004 -57.221000 23.663900 -24.631000 -24.328900 0.000322 -0.000009 5.226930 6.781160 -37.764600 -22.291500 -0.000108 -0.000004 0.789051 5.272210 0.833345 -2.192480 -6.469440 -0.000000 -175.587000 -6.875710 -1.973720 39.081100 -0.000007 -0.000012 -0.100260 0.240218 22.654400 40.985400 -0.000006 -0.000013 0.370384 5.335900 -66.159700 11.754300 -0.000000 0.000003 -0.000038 -0.000448 -16.595000 -2.192510 6.469440 -0.000001 179.370000 14.870700 -179.146000 -39.081100 -0.002282 -0.040193 -0.036065 0.112791 19.249600 -40.985400 0.000008 0.000006 3.404700 7.279880 -65.741000 -11.754300 -0.000006 -0.000006 -0.009134 -0.097046 -20.526100
0.000000 0.000000 0.000000 0.000000 0.000000 -0.000000 -0.275509 92.332500 -0.794753 88.122700 0.138299 5.010490 15.735700 0.000005 -0.000001 81.616000 85.593200 -81.532700 8.984550 -0.406207 -0.000000 0.954675 -1.289520 0.177353 16.377300 -0.000001 -0.000001 3.859780 -2.683510 0.528754 6.456720 -0.000001 -0.000000 6.963890 -3.126290 -1.071580 12.994200 -0.242716 4.980390 -89.592800 -1.256520 -72.043900 5.348090 -0.000007 -0.000001 -70.802800 38.508200 -11.872400 24.328600 0.000019 0.000005 1.532040 3.947190 -21.232100 22.291600 -0.000001 0.000005 5.488770 5.473170 -5.489430 12.994500 -0.242716 -4.980390 88.654500 4.135390 -71.959000 -5.348130 -0.000001 -0.000004 -55.467900 16.296100 -28.135600 -24.328900 0.000322 -0.000009 6.752220 6.534900 -46.131800 -22.291500 -0.000108 -0.000004 4.962480 5.267730 0.962423 -2.192480 -6.469440 -0.000000 -175.542000 -6.999280 -1.825780 39.081100 -0.000007 -0.000012 -0.102156 0.243282 22.778000 40.985400 -0.000006 -0.000013 0.368096 5.093830 -66.217500 11.754300 -0.000000 0.000003 -0.000047 -0.000535 -16.598300 -2.192510 6.469440 -0.000001 179.358000 14.640000 -179.051000 -39.081100 -0.002282 -0.040193 -0.036206 0.112736 19.322000 -40.985400 0.000008 0.000006 3.362290 7.460580 -65.703000 -11.754300 -0.000006 -0.000006 -0.008981 -0.095856 -20.477500
